<mxfile host="app.diagrams.net" modified="2024-01-30T06:50:18.702Z" agent="Mozilla/5.0 (Windows NT 10.0; Win64; x64) AppleWebKit/537.36 (KHTML, like Gecko) Chrome/119.0.0.0 Safari/537.36 OPR/105.0.0.0" version="23.0.2" etag="BbQeYgYvN92QCEY-FQ1-" type="github">
  <diagram name="Сторінка-1" id="90KNOFt9maJ_Alz-sWm5">
    <mxGraphModel>
      <root>
        <mxCell id="0" />
        <mxCell id="1" parent="0" />
      </root>
    </mxGraphModel>
  </diagram>
</mxfile>
